HIERARCHY
ROOT root
{
	OFFSET 0.000000 0.000000 0.000000
	CHANNELS 6 Xposition Yposition Zposition Zrotation Yrotation Xrotation
	JOINT lhip
	{
		OFFSET 0.058581 -0.082280 -0.017664
		CHANNELS 3 Zrotation Yrotation Xrotation
		JOINT lknee
		{
			OFFSET 0.043451 -0.386469 0.008037
			CHANNELS 3 Zrotation Yrotation Xrotation
			JOINT lankle
			{
				OFFSET -0.014790 -0.426874 -0.037428
				CHANNELS 3 Zrotation Yrotation Xrotation
				JOINT ltoe
				{
					OFFSET 0.041054 -0.060286 0.122042
					CHANNELS 3 Zrotation Yrotation Xrotation
					End Site
					{
						OFFSET 0.000000 0.000000 0.000000
					}
				}
			}
		}
	}
	JOINT rhip
	{
		OFFSET -0.060310 -0.090513 -0.013543
		CHANNELS 3 Zrotation Yrotation Xrotation
		JOINT rknee
		{
			OFFSET -0.043257 -0.383688 -0.004843
			CHANNELS 3 Zrotation Yrotation Xrotation
			JOINT rankle
			{
				OFFSET 0.019056 -0.420046 -0.034562
				CHANNELS 3 Zrotation Yrotation Xrotation
				JOINT rtoe
				{
					OFFSET -0.034840 -0.062106 0.130323
					CHANNELS 3 Zrotation Yrotation Xrotation
					End Site
					{
						OFFSET 0.000000 0.000000 0.000000
					}
				}
			}
		}
	}
	JOINT lowerback
	{
		OFFSET 0.004439 0.124404 -0.038385
		CHANNELS 3 Zrotation Yrotation Xrotation
		JOINT upperback
		{
			OFFSET 0.004488 0.137956 0.026820
			CHANNELS 3 Zrotation Yrotation Xrotation
			JOINT chest
			{
				OFFSET -0.002265 0.056032 0.002855
				CHANNELS 3 Zrotation Yrotation Xrotation
				JOINT lowerneck
				{
					OFFSET -0.013390 0.211636 -0.033468
					CHANNELS 3 Zrotation Yrotation Xrotation
					JOINT upperneck
					{
						OFFSET 0.010113 0.088937 0.050410
						CHANNELS 3 Zrotation Yrotation Xrotation
						End Site
						{
							OFFSET 0.000000 0.000000 0.000000
						}
					}
				}
				JOINT lclavicle
				{
					OFFSET 0.071702 0.114000 -0.018898
					CHANNELS 3 Zrotation Yrotation Xrotation
					JOINT lshoulder
					{
						OFFSET 0.122921 0.045205 -0.019046
						CHANNELS 3 Zrotation Yrotation Xrotation
						JOINT lelbow
						{
							OFFSET 0.255332 -0.015649 -0.022946
							CHANNELS 3 Zrotation Yrotation Xrotation
							JOINT lwrist
							{
								OFFSET 0.265709 0.012698 -0.007375
								CHANNELS 3 Zrotation Yrotation Xrotation
								End Site
								{
									OFFSET 0.000000 0.000000 0.000000
								}
							}
						}
					}
				}
				JOINT rclavicle
				{
					OFFSET -0.082954 0.112472 -0.023707
					CHANNELS 3 Zrotation Yrotation Xrotation
					JOINT rshoulder
					{
						OFFSET -0.113228 0.046853 -0.008472
						CHANNELS 3 Zrotation Yrotation Xrotation
						JOINT relbow
						{
							OFFSET -0.260127 -0.014369 -0.031269
							CHANNELS 3 Zrotation Yrotation Xrotation
							JOINT rwrist
							{
								OFFSET -0.269108 0.006794 -0.006027
								CHANNELS 3 Zrotation Yrotation Xrotation
								End Site
								{
									OFFSET 0.000000 0.000000 0.000000
								}
							}
						}
					}
				}
			}
		}
	}
}
MOTION
Frames: 13
Frame Time: 0.033333
-0.846531 1.885037 0.977123 48.676606 3.259965 87.204174 8.596031 7.517847 8.135438 -3.662168 4.364453 7.671988 3.583168 12.439515 -21.351456 0.000000 -0.000000 0.000000 -8.179811 -8.460527 -9.096124 1.248862 -10.913108 10.739755 4.839815 -5.118576 -2.897427 0.000000 -0.000000 0.000000 -0.670469 -0.309716 2.335229 2.747004 -3.049818 4.483010 -0.135793 -3.001197 2.786469 1.378381 -26.555629 1.127850 5.161241 -31.179065 1.554069 -28.847732 4.659557 7.268424 -61.070340 -3.712215 12.048340 10.842140 -32.769663 6.752301 9.135280 -4.281482 -8.739271 25.977931 0.375546 0.710822 62.260161 4.062560 12.158203 -15.630495 30.433240 -2.102438 -0.227592 3.407339 1.615843 
-0.847344 1.885590 0.976364 48.671688 3.309961 87.225760 8.639558 7.484274 7.761670 -3.757134 4.060347 8.255311 3.812310 12.608404 -21.903375 0.000000 -0.000000 0.000000 -8.306578 -8.321915 -10.043138 1.428058 -10.586661 12.298122 5.070369 -5.631729 -3.690831 0.000000 -0.000000 0.000000 -0.845376 -0.599595 2.486973 2.769068 -3.049753 4.165470 -0.090030 -3.151085 2.953988 1.397515 -25.769405 0.986785 4.356692 -30.560630 2.549168 -28.619969 4.517875 7.455011 -61.181574 -4.058250 12.281719 10.815478 -32.742927 6.631878 11.018234 -3.855290 -9.048372 26.212143 0.871320 0.925351 62.105135 4.593500 12.621884 -15.249619 29.661361 -2.241810 -1.115482 3.392164 0.900664 
-0.848393 1.886258 0.975900 48.830225 3.316049 87.098006 8.667398 7.276285 7.209494 -3.850136 3.892129 9.472244 4.037988 12.600207 -22.639646 0.000000 -0.000000 0.000000 -8.562398 -8.176822 -10.925256 1.576241 -10.723134 14.300692 4.842615 -5.786747 -4.793271 0.000000 -0.000000 0.000000 -1.179539 -0.827648 3.075042 2.922398 -3.061227 3.918228 0.078282 -3.244598 2.907190 1.667802 -24.517830 0.363467 3.259981 -29.672999 3.528571 -28.657739 4.351761 7.514379 -60.862175 -4.254100 12.322575 10.476276 -33.353959 6.903805 8.457922 -4.875900 -9.692317 26.718968 1.270477 1.131587 61.622042 5.108686 12.945976 -15.487218 29.529137 -2.797948 -0.013873 3.392784 0.717544 
-0.849410 1.887624 0.974588 49.534940 3.174865 87.210413 8.553439 6.705774 6.182252 -4.241672 3.312226 10.894535 4.621890 12.828007 -23.377687 0.000000 -0.000000 0.000000 -9.219743 -7.951130 -12.532286 1.908179 -10.808794 17.363697 4.735653 -6.511356 -6.476535 0.000000 -0.000000 0.000000 -1.674744 -0.862367 3.958839 3.160263 -2.950112 3.142776 0.264558 -3.477748 3.034544 1.989510 -22.344968 -0.683879 1.642865 -27.813736 5.048000 -28.765684 4.013477 7.393458 -60.306693 -4.715343 12.846072 9.614983 -33.900019 6.737470 9.156715 -5.141189 -11.428229 27.414991 1.356983 0.971930 60.762416 5.659248 13.600336 -15.537786 29.626340 -3.970729 -0.741467 3.368433 0.083412 
-0.849307 1.886663 0.973553 50.048012 3.133219 86.944649 8.806177 6.827306 6.067940 -4.683735 2.415204 11.728874 4.937944 12.989414 -23.970043 0.000000 -0.000000 0.000000 -9.459162 -8.134780 -12.921997 1.965678 -10.777389 19.108725 4.520725 -6.731260 -7.676148 0.000000 -0.000000 0.000000 -2.012474 -0.749737 4.664705 3.281329 -2.856426 2.916697 0.413643 -3.487310 3.144862 2.323364 -20.995093 -1.042841 1.758760 -26.545850 5.604232 -28.468975 3.544586 7.175571 -60.242673 -4.555402 12.951485 9.587286 -34.189891 6.839068 11.982357 -3.717309 -10.537065 27.651762 1.531027 0.758849 60.442910 5.751661 13.531812 -15.242264 30.092121 -4.366411 -2.114941 3.177310 -0.568670 
-0.849311 1.885871 0.971808 51.029861 2.899087 86.909724 8.830672 6.368626 5.548879 -5.143472 2.133078 12.881574 5.321027 12.753994 -24.955520 0.000000 -0.000000 0.000000 -10.164084 -8.090921 -13.635253 2.128373 -11.309688 21.334832 4.447387 -7.054123 -9.173868 0.000000 -0.000000 0.000000 -2.440628 -0.633442 5.531118 3.282581 -2.762787 2.683372 0.444802 -3.477445 3.159588 2.787230 -18.602274 -1.714517 1.441770 -24.421553 5.719187 -28.383280 3.267465 6.896710 -59.722405 -4.848417 13.146846 9.298486 -35.093410 6.882187 10.872924 -4.572708 -11.427536 27.995620 1.678680 0.568680 60.275994 6.204965 13.930555 -15.558975 30.488831 -5.613572 -1.342031 3.361269 -2.067921 
-0.848527 1.884140 0.970054 52.145770 2.711468 86.898321 8.843922 6.097393 5.123255 -5.421358 1.503432 13.738295 5.611535 12.650414 -25.634101 0.000000 -0.000000 0.000000 -10.687194 -8.303210 -14.383005 2.009504 -11.730764 23.771369 4.763464 -7.381616 -10.868764 0.000000 -0.000000 0.000000 -2.663682 -0.330518 6.515030 3.157607 -2.510286 2.485617 0.505039 -3.344263 3.186092 3.201078 -17.054587 -2.026186 1.901268 -23.034491 5.563640 -28.352514 2.747453 6.739895 -59.084874 -5.159287 13.458847 8.733717 -36.661791 6.157600 12.429898 -4.904978 -12.791073 28.222028 2.079008 0.530800 60.028938 6.486460 14.081373 -15.767800 31.292096 -6.932262 -2.149248 3.423338 -2.771419 
-0.847083 1.880752 0.968068 53.740181 2.340897 87.202664 8.911345 5.891548 4.481616 -5.926464 0.637346 14.429873 5.949812 12.399172 -26.133357 0.000000 -0.000000 0.000000 -11.352032 -9.086760 -15.164372 1.931550 -12.177831 26.102593 4.730826 -7.677576 -12.496859 0.000000 -0.000000 0.000000 -3.102909 -0.066226 7.291586 2.960556 -2.329454 2.357550 0.492161 -3.332200 3.155511 3.085940 -15.489697 -3.057692 1.233614 -21.683370 5.649814 -27.973945 2.627490 6.628559 -58.831800 -4.828561 13.340186 9.476428 -38.640166 6.059553 13.497440 -3.829697 -12.411681 28.464899 2.355287 0.400942 60.180660 6.631169 14.119992 -16.186126 31.911486 -7.823687 -1.894902 3.278345 -3.010010 
-0.845769 1.876011 0.966641 55.513694 1.900855 87.796347 8.966637 5.525563 3.633567 -6.303998 0.147224 14.899965 6.006843 12.135273 -26.575543 0.000000 -0.000000 0.000000 -11.937889 -9.718153 -15.905924 1.719585 -12.973056 28.099814 4.869797 -8.071179 -13.791106 0.000000 -0.000000 0.000000 -3.798610 0.194795 8.165326 2.800884 -2.147020 1.927357 0.480981 -3.184877 3.117044 3.410585 -14.745541 -3.900659 1.587730 -21.748588 5.511889 -27.433002 3.080400 6.879000 -57.872568 -4.481047 13.338416 8.401495 -42.300874 6.262507 13.473345 -4.450765 -14.452985 28.507693 2.319405 0.482116 60.601995 6.343360 14.289065 -16.979792 33.296351 -8.449080 -1.563867 3.658369 -2.764396 
-0.843900 1.867195 0.965387 58.522314 1.409928 88.835380 9.221765 5.291284 2.200001 -6.429123 -1.046141 15.468831 5.728482 11.520800 -26.914875 0.000000 -0.000000 0.000000 -12.440794 -10.954771 -16.783207 1.032608 -14.387776 30.697762 5.362604 -9.075808 -15.136873 0.000000 -0.000000 0.000000 -4.735394 0.683382 9.652600 2.586340 -2.095174 0.799179 0.373471 -3.356777 3.071001 3.278789 -13.941632 -5.061601 1.691027 -22.198523 5.040521 -25.892354 4.315679 7.553456 -55.698337 -2.803357 13.430907 4.218958 -49.218572 10.154541 15.328917 -4.398443 -16.231702 28.116813 1.188757 -0.017630 61.573692 4.923523 14.537729 -17.017208 36.614593 -8.951647 -3.469254 3.839450 -2.234815 
-0.842833 1.856993 0.964657 61.248276 1.186686 90.141866 10.163028 5.171214 0.683213 -6.928107 -2.057158 15.658926 4.980521 11.368843 -26.951273 0.000000 -0.000000 0.000000 -12.413547 -11.593728 -18.065352 0.401998 -15.984965 33.256848 5.569938 -10.418166 -15.966824 0.000000 -0.000000 0.000000 -5.819884 0.962049 10.802979 2.573059 -1.984107 -0.324216 0.385703 -3.479540 2.894800 4.049079 -14.366523 -5.675597 3.248341 -23.918742 3.881220 -24.503988 5.382344 8.787544 -53.042382 -0.680038 13.665623 -0.329317 -55.765270 15.061442 17.189773 -4.594133 -17.500396 27.430979 -0.170191 -0.177566 62.575874 2.624169 14.462033 -16.500722 40.495717 -8.317466 -6.125261 4.251600 -2.919733 
-0.843597 1.844702 0.963482 64.480449 1.144063 91.882937 11.758229 5.052228 -2.078692 -7.714613 -2.201383 17.080153 4.499493 11.825242 -27.455566 0.000000 -0.000000 0.000000 -12.251707 -12.047174 -20.421853 -0.012839 -17.734618 37.358594 5.839834 -11.908192 -16.312343 0.000000 -0.000000 0.000000 -7.040434 1.008227 12.116197 2.651357 -2.094585 -1.437782 0.379753 -3.889016 2.885644 4.987833 -14.395050 -6.675476 4.792948 -25.077742 2.568776 -23.417015 7.031902 9.654212 -49.575591 1.391682 13.829340 -6.596514 -61.760904 21.580435 19.301383 -5.056431 -17.728159 27.054428 -1.877372 -0.385370 62.793279 0.200517 14.898737 -14.304656 45.332371 -6.338409 -8.174877 5.251737 -4.520050 
-0.846763 1.831721 0.960373 68.391468 1.544565 94.133783 14.289539 5.521124 -7.330589 -8.474800 -0.778562 21.525389 4.103499 12.551135 -27.834656 0.000000 -0.000000 0.000000 -12.054499 -12.762614 -24.375617 0.210443 -18.886989 43.421066 6.278869 -12.234399 -16.041408 0.000000 -0.000000 0.000000 -7.684479 0.968448 13.912377 3.146196 -2.472464 -2.653797 0.391478 -4.468322 2.678047 6.268059 -15.443603 -8.615588 6.587325 -26.922014 0.533032 -23.107183 8.055452 10.691516 -46.234731 3.071723 13.712320 -12.881797 -66.211200 27.146408 22.603529 -4.926250 -17.164371 26.962937 -3.234708 -0.237680 62.043388 -2.122103 14.877722 -11.639576 49.904749 -4.230960 -11.115191 6.200087 -6.398310 
